<?xml version="1.0" encoding="UTF-8" standalone="no"?>
<svg
   width="308.71878"
   zoomAndPan="magnify"
   viewBox="0 0 231.53909 253.90624"
   height="338.54166"
   preserveAspectRatio="xMidYMid"
   version="1.0"
   id="svg370"
   sodipodi:docname="Åsiktlådan.svg"
   xmlns:inkscape="http://www.inkscape.org/namespaces/inkscape"
   xmlns:sodipodi="http://sodipodi.sourceforge.net/DTD/sodipodi-0.dtd"
   xmlns="http://www.w3.org/2000/svg"
   xmlns:svg="http://www.w3.org/2000/svg">
  <sodipodi:namedview
     id="namedview370"
     pagecolor="#ffffff"
     bordercolor="#000000"
     borderopacity="0.25"
     inkscape:showpageshadow="2"
     inkscape:pageopacity="0.0"
     inkscape:pagecheckerboard="0"
     inkscape:deskcolor="#d1d1d1">
    <inkscape:page
       x="0"
       y="0"
       width="231.53909"
       height="253.90623"
       id="page2"
       margin="0"
       bleed="0" />
  </sodipodi:namedview>
  <defs
     id="defs148">
    <clipPath
       id="67d946211a">
      <path
         d="M 380.79687,264.38281 H 612.33594 V 518.53516 H 380.79687 Z m 0,0"
         clip-rule="nonzero"
         id="path136" />
    </clipPath>
    <clipPath
       id="289163eb9a">
      <path
         d="m 395.03906,264.38281 h 203.05469 c 3.77734,0 7.40234,1.5 10.07422,4.17188 2.66797,2.67187 4.16797,6.29297 4.16797,10.07031 v 225.41797 c 0,3.77734 -1.5,7.40234 -4.16797,10.07422 -2.67188,2.66797 -6.29688,4.17187 -10.07422,4.17187 H 395.03906 c -3.77734,0 -7.39844,-1.5039 -10.07031,-4.17187 -2.67188,-2.67188 -4.17188,-6.29688 -4.17188,-10.07422 V 278.625 c 0,-3.77734 1.5,-7.39844 4.17188,-10.07031 2.67187,-2.67188 6.29297,-4.17188 10.07031,-4.17188 z m 0,0"
         clip-rule="nonzero"
         id="path137" />
    </clipPath>
  </defs>
  <g
     clip-path="url(#67d946211a)"
     id="g161"
     inkscape:export-filename="../Documents/personal/asiktsladan/Documents/personal/asiktsladan/Documents/personal/asiktsladan/public/mailbox_bottom.svg"
     inkscape:export-xdpi="96"
     inkscape:export-ydpi="96"
     transform="translate(-380.79686,-264.38281)">
    <g
       clip-path="url(#289163eb9a)"
       id="g160">
      <path
         fill="#bf7e92"
         d="M 380.79687,264.38281 H 612.33594 V 518.53516 H 380.79687 Z m 0,0"
         fill-opacity="1"
         fill-rule="nonzero"
         id="path160" />
    </g>
  </g>
</svg>
