<?xml version="1.0" encoding="UTF-8" standalone="no"?>
<svg
   width="383.72577"
   zoomAndPan="magnify"
   viewBox="0 0 287.79432 285.77735"
   height="381.03647"
   preserveAspectRatio="xMidYMid"
   version="1.0"
   id="svg370"
   sodipodi:docname="Åsiktlådan.svg"
   xmlns:inkscape="http://www.inkscape.org/namespaces/inkscape"
   xmlns:sodipodi="http://sodipodi.sourceforge.net/DTD/sodipodi-0.dtd"
   xmlns="http://www.w3.org/2000/svg"
   xmlns:svg="http://www.w3.org/2000/svg">
  <sodipodi:namedview
     id="namedview370"
     pagecolor="#ffffff"
     bordercolor="#000000"
     borderopacity="0.25"
     inkscape:showpageshadow="2"
     inkscape:pageopacity="0.0"
     inkscape:pagecheckerboard="0"
     inkscape:deskcolor="#d1d1d1">
    <inkscape:page
       x="4.7888448e-14"
       y="0"
       width="287.79431"
       height="285.77734"
       id="page2"
       margin="0"
       bleed="0" />
  </sodipodi:namedview>
  <defs
     id="defs148">
    <inkscape:path-effect
       effect="fillet_chamfer"
       id="path-effect372"
       is_visible="true"
       lpeversion="1"
       nodesatellites_param="F,0,0,1,0,9,0,1 @ F,0,0,1,0,9,0,1 @ F,0,0,1,0,9,0,1 @ F,0,0,1,0,9,0,1"
       radius="12"
       unit="px"
       method="auto"
       mode="F"
       chamfer_steps="1"
       flexible="false"
       use_knot_distance="true"
       apply_no_radius="true"
       apply_with_radius="true"
       only_selected="false"
       hide_knots="false" />
    <clipPath
       id="67d946211a">
      <path
         d="M 380.79687,264.38281 H 612.33594 V 518.53516 H 380.79687 Z m 0,0"
         clip-rule="nonzero"
         id="path136" />
    </clipPath>
    <clipPath
       id="289163eb9a">
      <path
         d="m 395.03906,264.38281 h 203.05469 c 3.77734,0 7.40234,1.5 10.07422,4.17188 2.66797,2.67187 4.16797,6.29297 4.16797,10.07031 v 225.41797 c 0,3.77734 -1.5,7.40234 -4.16797,10.07422 -2.67188,2.66797 -6.29688,4.17187 -10.07422,4.17187 H 395.03906 c -3.77734,0 -7.39844,-1.5039 -10.07031,-4.17187 -2.67188,-2.67188 -4.17188,-6.29688 -4.17188,-10.07422 V 278.625 c 0,-3.77734 1.5,-7.39844 4.17188,-10.07031 2.67187,-2.67188 6.29297,-4.17188 10.07031,-4.17188 z m 0,0"
         clip-rule="nonzero"
         id="path137" />
    </clipPath>
    <clipPath
       id="b47ee36fc0">
      <path
         d="m 352.49609,232.51172 h 288.03907 v 45.85937 H 352.49609 Z m 0,0"
         clip-rule="nonzero"
         id="path138" />
    </clipPath>
    <clipPath
       id="4ae9f1235c">
      <path
         d="m 420.53516,232.51172 h 152.0664 c 8.77344,0 17.32031,2.76562 24.4336,7.90234 l 41.62109,30.05469 c 1.53125,1.10937 2.17969,3.08203 1.59766,4.88281 -0.58594,1.80078 -2.26172,3.01953 -4.15235,3.01953 h -279.0664 c -1.89454,0 -3.57032,-1.21875 -4.15235,-3.01953 -0.58203,-1.80078 0.0625,-3.77344 1.59766,-4.88281 l 41.62109,-30.05469 c 7.10938,-5.13672 15.66016,-7.90234 24.4336,-7.90234 z m 0,0"
         clip-rule="nonzero"
         id="path139" />
    </clipPath>
  </defs>
  <g
     clip-path="url(#67d946211a)"
     id="g161"
     inkscape:export-filename="../Documents/personal/asiktsladan/public/mailbox_bottom.svg"
     inkscape:export-xdpi="96"
     inkscape:export-ydpi="96"
     transform="translate(-352.67096,-232.51172)">
    <g
       clip-path="url(#289163eb9a)"
       id="g160">
      <path
         fill="#bf7e92"
         d="M 380.79687,264.38281 H 612.33594 V 518.53516 H 380.79687 Z m 0,0"
         fill-opacity="1"
         fill-rule="nonzero"
         id="path160"
         style="fill:#bf7e92;fill-opacity:1" />
    </g>
  </g>
  <g
     clip-path="url(#b47ee36fc0)"
     id="g163"
     inkscape:export-filename="../Documents/personal/asiktsladan/public/mailbox_lid.svg"
     inkscape:export-xdpi="96"
     inkscape:export-ydpi="96"
     transform="matrix(-1,0,0,1,640.46523,-232.51172)"
     style="display:inline">
    <g
       clip-path="url(#4ae9f1235c)"
       id="g162">
      <path
         fill="#cb9baa"
         d="m 343.54297,232.51172 h 306.1289 v 45.85937 h -306.1289 z m 0,0"
         fill-opacity="1"
         fill-rule="nonzero"
         id="path161" />
    </g>
  </g>
  <path
     style="opacity:1;fill:#e6c4cf;fill-opacity:1;stroke-width:0.75"
     id="rect372"
     width="179.93805"
     height="59.979343"
     x="405.97589"
     y="321.7074"
     inkscape:path-effect="#path-effect372"
     sodipodi:type="rect"
     d="m 414.97589,321.7074 h 161.93805 a 9,9 45 0 1 9,9 v 41.97934 a 9,9 135 0 1 -9,9 H 414.97589 a 9,9 45 0 1 -9,-9 V 330.7074 a 9,9 135 0 1 9,-9 z"
     transform="translate(-351.18387,-247.38263)" />
</svg>
