<?xml version="1.0" encoding="UTF-8" standalone="no"?>
<svg
   width="383.72577"
   zoomAndPan="magnify"
   viewBox="0 0 287.79432 45.859383"
   height="61.145844"
   preserveAspectRatio="xMidYMid"
   version="1.0"
   id="svg370"
   sodipodi:docname="Åsiktlådan.svg"
   xmlns:inkscape="http://www.inkscape.org/namespaces/inkscape"
   xmlns:sodipodi="http://sodipodi.sourceforge.net/DTD/sodipodi-0.dtd"
   xmlns="http://www.w3.org/2000/svg"
   xmlns:svg="http://www.w3.org/2000/svg">
  <sodipodi:namedview
     id="namedview370"
     pagecolor="#ffffff"
     bordercolor="#000000"
     borderopacity="0.25"
     inkscape:showpageshadow="2"
     inkscape:pageopacity="0.0"
     inkscape:pagecheckerboard="0"
     inkscape:deskcolor="#d1d1d1">
    <inkscape:page
       x="4.7888448e-14"
       y="0"
       width="287.79431"
       height="45.859383"
       id="page2"
       margin="0"
       bleed="0" />
  </sodipodi:namedview>
  <defs
     id="defs148">
    <clipPath
       id="b47ee36fc0">
      <path
         d="m 352.49609,232.51172 h 288.03907 v 45.85937 H 352.49609 Z m 0,0"
         clip-rule="nonzero"
         id="path138" />
    </clipPath>
    <clipPath
       id="4ae9f1235c">
      <path
         d="m 420.53516,232.51172 h 152.0664 c 8.77344,0 17.32031,2.76562 24.4336,7.90234 l 41.62109,30.05469 c 1.53125,1.10937 2.17969,3.08203 1.59766,4.88281 -0.58594,1.80078 -2.26172,3.01953 -4.15235,3.01953 h -279.0664 c -1.89454,0 -3.57032,-1.21875 -4.15235,-3.01953 -0.58203,-1.80078 0.0625,-3.77344 1.59766,-4.88281 l 41.62109,-30.05469 c 7.10938,-5.13672 15.66016,-7.90234 24.4336,-7.90234 z m 0,0"
         clip-rule="nonzero"
         id="path139" />
    </clipPath>
  </defs>
  <g
     clip-path="url(#b47ee36fc0)"
     id="g163"
     transform="translate(-352.67096,-232.51172)">
    <g
       clip-path="url(#4ae9f1235c)"
       id="g162">
      <path
         fill="#cb9baa"
         d="m 343.54297,232.51172 h 306.1289 v 45.85937 h -306.1289 z m 0,0"
         fill-opacity="1"
         fill-rule="nonzero"
         id="path161" />
    </g>
  </g>
</svg>
