<?xml version="1.0" encoding="UTF-8" standalone="no"?>
<svg
   width="1365.3334"
   zoomAndPan="magnify"
   viewBox="0 0 1024 575.71875"
   height="767.625"
   preserveAspectRatio="xMidYMid"
   version="1.0"
   id="svg370"
   xmlns="http://www.w3.org/2000/svg"
   xmlns:svg="http://www.w3.org/2000/svg">
  <defs
     id="defs148">
    <clipPath
       id="244031a29a">
      <path
         d="M 0,241 H 1024 V 575.85937 H 0 Z m 0,0"
         clip-rule="nonzero"
         id="path131" />
    </clipPath>
    <clipPath
       id="03b372171c">
      <path
         d="M 0,241 H 850 V 575.85937 H 0 Z m 0,0"
         clip-rule="nonzero"
         id="path132" />
    </clipPath>
  </defs>
  <g
     clip-path="url(#244031a29a)"
     id="g153"
     transform="translate(0,-0.140625)">
    <path
       fill="#b3d781"
       d="m 1117.9805,526.14844 c -1.5469,1.54687 -3.3555,2.32031 -5.418,2.57812 -30.6953,5.66797 -61.6523,11.59375 -92.8672,10.82031 -31.21093,-0.77343 -61.39452,-8.75781 -93.12108,-5.92578 -41.01563,3.60547 -82.03125,9.78907 -123.30469,16.48828 -11.09375,1.80469 -21.92969,3.60547 -33.01953,5.15235 -3.09766,0.51562 -6.44922,1.03125 -9.54688,1.54687 -6.44921,1.03125 -12.89843,2.0625 -19.60546,2.83203 l -3.86719,0.51563 c -1.54688,0.77344 -3.35547,1.03125 -5.16016,0.77344 L 537.05078,552.6875 c -105.50391,-4.64063 -212.04297,-13.39844 -317.80469,-8.76172 -8.25781,0.25781 -16.2539,0.77344 -24.50781,1.28906 -28.375,1.80469 -56.49219,4.37891 -84.87109,7.21485 -6.96485,0.77343 -14.187502,1.54297 -21.152346,2.3164 -6.964844,0.77344 -14.1875,1.54688 -21.152344,2.32032 -3.609375,0.51562 -7.222656,0.77343 -10.574219,1.28906 -67.070312,7.98437 -133.882812,17.26172 -200.953121,25.5039 -5.67578,3.86719 -13.41407,1.80469 -17.28125,-2.83203 -0.25782,-0.25781 -0.25782,-0.51562 -0.51953,-0.77343 -0.25782,-0.25782 -0.25782,-0.51563 -0.51563,-0.77344 -1.80469,-3.08985 -2.0625,-6.95703 0.77734,-10.82031 25.01954,-35.03907 53.13672,-67.24219 83.835941,-96.8711 5.417969,-5.15234 10.832031,-10.5625 16.507813,-15.45703 3.613281,-3.35156 7.480468,-6.69922 11.351562,-10.05078 3.871094,-3.34766 7.480469,-6.69531 11.351563,-10.04688 3.867187,-3.34765 7.738281,-6.4414 11.605469,-9.78906 3.871093,-3.35156 7.738281,-6.4414 11.609374,-9.53515 3.871094,-3.08985 7.996094,-6.4375 11.867188,-9.53125 3.867188,-3.08985 7.996094,-6.1836 12.125,-9.27344 3.609375,-2.83594 7.480469,-5.66797 11.089844,-8.2461 40.757812,-30.39843 83.320316,-58.22656 126.402346,-84.76171 15.73437,-9.78907 31.46875,-19.32422 47.20703,-28.59766 31.46875,-19.57813 60.8789,-42.50781 99.57031,-33.23438 1.80859,0.51563 3.35547,0.77344 5.16016,1.28907 1.80468,0.51562 3.35547,1.03125 5.16015,1.54297 0,0 0,0 0.25782,0 30.4375,8.5039 60.36328,21.64453 89.2539,34.00781 67.58594,29.6289 131.5625,66.73047 190.375,111.04297 0.51563,-1.28907 1.03125,-2.57813 1.80469,-3.34766 0,0 0,0 0.25781,-0.25781 0.77735,-0.77344 1.55078,-1.54688 2.32422,-2.32031 45.66016,-32.97657 94.15625,-61.57422 145.23047,-85.27735 24.76562,-11.59375 50.30469,-21.89844 76.09766,-31.17578 3.09765,-1.02734 6.44921,-2.31641 9.54687,-3.34766 0.25781,0 0.51563,0 0.51563,-0.25781 10.3164,-3.34765 20.3789,-5.66797 30.4375,-5.41015 4.90234,0 9.54687,0.51562 13.92968,1.80468 4.64453,1.28907 9.03125,3.08985 13.15625,5.41016 46.94922,26.01953 87.19141,68.78906 123.82426,107.17578 41.2734,43.53906 81.7734,88.11328 122.5312,132.16797 6.707,7.46875 2.0625,17.00391 -4.9023,19.83594 z m 0,0"
       fill-opacity="1"
       fill-rule="nonzero"
       id="path153" />
  </g>
  <g
     clip-path="url(#03b372171c)"
     id="g154"
     transform="translate(0,-0.140625)">
    <path
       fill="#86a161"
       d="m 293.01953,243.26562 c 3.35547,0.77344 6.96484,1.80469 10.57813,2.57422 -1.54688,2.32032 -3.8711,4.125 -6.70704,4.64063 -51.85156,12.8789 -88.48046,52.55469 -116.85546,94.80859 -26.3125,39.41797 -63.71875,97.90235 -23.99219,141.1836 18.05859,19.83984 39.72656,36.32812 59.58984,54.10546 1.28906,1.03125 2.32031,2.31641 3.61328,3.34766 -8.25781,0.25781 -16.2539,0.77344 -24.50781,1.28906 -112.98828,7.47266 -225.972655,24.99219 -338.44531,38.90235 -9.80078,6.69922 -25.53906,-3.86328 -17.53906,-15.19922 C -114.55859,502.70312 -55.742188,447.05469 8.75,397.84766 67.304688,353.01953 130.24609,313.85937 193.44922,275.98437 c 31.46875,-19.0625 60.8789,-41.99218 99.57031,-32.71875 z m 526.24219,21.89844 c -0.25781,0 -0.51563,0.25781 -0.51563,0.25781 -3.35547,1.03125 -6.44922,2.0625 -9.80468,3.34766 -25.79297,9.27734 -51.33204,19.58203 -76.09766,31.17578 -51.07422,23.70313 -99.57031,52.30078 -145.23047,85.27735 l -2.32422,2.32031 v 0.25781 l 1.03516,1.54297 c 13.67187,22.41406 29.14844,43.54297 46.42969,63.63672 33.01953,38.64453 75.07031,68.53125 108.34375,106.66015 6.70703,-0.76953 13.15625,-1.80078 19.86328,-2.83203 3.09765,-0.51562 6.44922,-1.03125 9.54687,-1.54687 11.08985,-1.80078 21.92578,-3.60547 33.01953,-5.15235 -6.44922,-24.73437 -23.21875,-45.60156 -33.53515,-69.04687 -0.51563,-1.28906 -1.29297,-2.83203 -1.8086,-4.12109 0,-0.25782 -0.25781,-0.77344 -0.25781,-1.28907 -3.60937,-15.71484 -5.15625,-32.20312 -7.73828,-48.43359 2.83984,-16.23047 7.73828,-31.94922 12.89844,-47.40625 9.02734,-27.30859 18.57422,-55.13281 34.30859,-79.35156 11.35156,-17.26172 26.05469,-29.88672 42.5625,-40.70703 -10.31641,0 -20.37891,2.32031 -30.69531,5.41015 z m 0,0"
       fill-opacity="1"
       fill-rule="nonzero"
       id="path154" />
  </g>
</svg>
