<?xml version="1.0" encoding="UTF-8" standalone="no"?>
<svg
   width="61.96875"
   zoomAndPan="magnify"
   viewBox="0 0 46.476562 46.476562"
   height="61.96875"
   preserveAspectRatio="xMidYMid"
   version="1.0"
   id="svg370"
   xmlns="http://www.w3.org/2000/svg"
   xmlns:svg="http://www.w3.org/2000/svg">
  <defs
     id="defs148">
    <clipPath
       id="b819880587">
      <path
         d="m 611.07422,20.878906 h 46.47656 v 46.480469 h -46.47656 z m 0,0"
         clip-rule="nonzero"
         id="path143" />
    </clipPath>
    <clipPath
       id="4a8c487beb">
      <path
         d="M 619.88281,41 H 644 v 16.535156 h -24.11719 z m 0,0"
         clip-rule="nonzero"
         id="path144" />
    </clipPath>
    <clipPath
       id="744f3b1c05">
      <path
         d="m 636,28.300781 h 13 V 50 h -13 z m 0,0"
         clip-rule="nonzero"
         id="path145" />
    </clipPath>
  </defs>
  <g
     clip-path="url(#b819880587)"
     id="g167"
     transform="translate(-611.07423,-20.878906)">
    <path
       fill="#f2eeeb"
       d="m 657.55078,62.816406 c -1.15625,0 -2.09375,-0.9375 -2.09375,-2.09375 0,-1.160156 0.9375,-2.097656 2.09375,-2.097656 v -2.445312 c -1.15625,0 -2.09375,-0.941407 -2.09375,-2.097657 0,-1.160156 0.9375,-2.097656 2.09375,-2.097656 v -2.445313 c -1.15625,0 -2.09375,-0.9375 -2.09375,-2.097656 0,-1.160156 0.9375,-2.09375 2.09375,-2.09375 v -2.449218 c -1.15625,0 -2.09375,-0.9375 -2.09375,-2.097657 0,-1.15625 0.9375,-2.09375 2.09375,-2.09375 v -2.449219 c -1.15625,0 -2.09375,-0.9375 -2.09375,-2.09375 0,-1.160156 0.9375,-2.097656 2.09375,-2.097656 v -2.449218 c -1.15625,0 -2.09375,-0.9375 -2.09375,-2.097657 0,-1.15625 0.9375,-2.09375 2.09375,-2.09375 v -2.449219 c -0.0664,0 -0.13672,0 -0.20703,-0.01172 -0.0664,-0.0039 -0.13281,-0.01563 -0.20313,-0.02734 -0.13281,-0.02734 -0.26562,-0.06641 -0.39062,-0.121094 -0.12891,-0.05078 -0.25,-0.117187 -0.35938,-0.191406 -0.0586,-0.03906 -0.11328,-0.07813 -0.16796,-0.125 -0.0547,-0.04297 -0.10547,-0.08984 -0.15235,-0.136719 -0.0508,-0.04687 -0.0976,-0.101562 -0.14062,-0.152343 -0.043,-0.05469 -0.082,-0.109376 -0.1211,-0.164063 -0.0781,-0.117187 -0.14062,-0.238281 -0.1914,-0.363281 -0.0547,-0.128906 -0.0937,-0.257813 -0.1211,-0.394532 -0.0117,-0.06641 -0.0234,-0.132812 -0.0312,-0.203124 -0.008,-0.06641 -0.008,-0.136719 -0.008,-0.207032 h -2.44922 c 0,1.160156 -0.9375,2.097656 -2.09375,2.097656 -1.16015,0 -2.09765,-0.9375 -2.09765,-2.097656 h -2.44532 c 0,1.160156 -0.9414,2.097656 -2.09765,2.097656 -1.15625,0 -2.09766,-0.9375 -2.09766,-2.097656 h -2.44531 c 0,1.160156 -0.94141,2.097656 -2.09766,2.097656 -1.16015,0 -2.09765,-0.9375 -2.09765,-2.097656 h -2.44532 c 0,1.160156 -0.9375,2.097656 -2.09765,2.097656 -1.16016,0 -2.09766,-0.9375 -2.09766,-2.097656 h -2.44531 c 0,1.160156 -0.9375,2.097656 -2.09766,2.097656 -1.15625,0 -2.09375,-0.9375 -2.09375,-2.097656 h -2.44922 c 0,1.160156 -0.9375,2.097656 -2.09765,2.097656 -1.15625,0 -2.09375,-0.9375 -2.09375,-2.097656 h -2.44922 c 0,0.07031 0,0.140625 -0.008,0.207032 -0.008,0.07031 -0.0195,0.136718 -0.0312,0.203124 -0.0274,0.136719 -0.0664,0.265626 -0.1211,0.394532 -0.0508,0.125 -0.11719,0.246094 -0.1914,0.363281 -0.0391,0.05469 -0.0781,0.109375 -0.1211,0.164063 -0.043,0.05078 -0.0898,0.105468 -0.14062,0.152343 -0.0469,0.04687 -0.0977,0.09375 -0.15235,0.136719 -0.0547,0.04687 -0.10937,0.08594 -0.16797,0.125 -0.11328,0.07422 -0.23046,0.140625 -0.35937,0.191406 -0.125,0.05469 -0.25781,0.09375 -0.39063,0.121094 -0.0703,0.01172 -0.13671,0.02344 -0.20312,0.02734 -0.0703,0.0078 -0.14063,0.01172 -0.20703,0.01172 v 2.449219 c 1.15625,0 2.09375,0.9375 2.09375,2.09375 0,1.160157 -0.9375,2.097657 -2.09375,2.097657 V 32.0625 c 1.15625,0 2.09375,0.9375 2.09375,2.097656 0,1.15625 -0.9375,2.097656 -2.09375,2.097656 v 2.445313 c 1.15625,0 2.09375,0.9375 2.09375,2.097656 0,1.15625 -0.9375,2.09375 -2.09375,2.09375 v 2.449219 c 1.15625,0 2.09375,0.9375 2.09375,2.09375 0,1.160156 -0.9375,2.097656 -2.09375,2.097656 v 2.445313 c 1.15625,0 2.09375,0.941406 2.09375,2.097656 0,1.15625 -0.9375,2.097656 -2.09375,2.097656 v 2.445313 c 1.15625,0 2.09375,0.9375 2.09375,2.097656 0,1.15625 -0.9375,2.09375 -2.09375,2.09375 v 2.449219 c 0.0664,0 0.13672,0 0.20312,0.0078 0.0703,0.0078 0.13672,0.01953 0.20313,0.03125 0.13672,0.02734 0.26562,0.06641 0.39453,0.121094 0.125,0.05078 0.24609,0.113281 0.36328,0.191406 0.0547,0.03906 0.10938,0.07813 0.16406,0.121094 0.0508,0.04297 0.10547,0.08984 0.15235,0.140625 0.0508,0.04687 0.0937,0.09766 0.13672,0.152344 0.0469,0.05469 0.0859,0.109375 0.125,0.164062 0.0742,0.113282 0.14062,0.234375 0.1914,0.363282 0.0547,0.125 0.0937,0.257812 0.1211,0.390624 0.0117,0.07031 0.0234,0.136719 0.0312,0.203126 0.008,0.07031 0.008,0.140624 0.008,0.207031 h 2.44922 c 0,-1.15625 0.9375,-2.09375 2.09375,-2.09375 1.16015,0 2.09765,0.9375 2.09765,2.09375 h 2.44532 c 0,-1.15625 0.9414,-2.09375 2.09765,-2.09375 1.15625,0 2.09766,0.9375 2.09766,2.09375 h 2.44531 c 0,-1.15625 0.9375,-2.09375 2.09766,-2.09375 1.15625,0 2.09375,0.9375 2.09375,2.09375 h 2.44922 c 0,-1.15625 0.9375,-2.09375 2.09765,-2.09375 1.15625,0 2.09375,0.9375 2.09375,2.09375 h 2.44922 c 0,-1.15625 0.9375,-2.09375 2.09375,-2.09375 1.15625,0 2.09766,0.9375 2.09766,2.09375 h 2.44531 c 0,-1.15625 0.94141,-2.09375 2.09766,-2.09375 1.15625,0 2.09375,0.9375 2.09375,2.09375 h 2.44921 c 0,-0.06641 0.004,-0.136719 0.0117,-0.207031 0.004,-0.06641 0.0156,-0.132813 0.0312,-0.203126 0.0234,-0.132812 0.0664,-0.265624 0.11719,-0.390624 0.0508,-0.128907 0.11719,-0.25 0.19141,-0.363282 0.0391,-0.05469 0.082,-0.109375 0.125,-0.164062 0.043,-0.05469 0.0898,-0.105469 0.13672,-0.152344 0.39062,-0.390625 0.92968,-0.613281 1.48437,-0.613281 z m 0,0"
       fill-opacity="1"
       fill-rule="nonzero"
       id="path166" />
  </g>
  <g
     clip-path="url(#4a8c487beb)"
     id="g171"
     transform="translate(-611.07423,-20.878906)">
    <path
       stroke-linecap="butt"
       transform="matrix(0.0702524,0,0,0.0696089,614.53741,27.256641)"
       fill-opacity="1"
       fill="#000000"
       fill-rule="evenodd"
       stroke-linejoin="miter"
       d="M 414.65592,211.24168 C 406.98269,199.56932 344.65161,232.2856 311.67897,269.21066 272.8124,295.41736 120.4043,398.22392 76.14423,434.81229 127.18788,408.54947 281.59769,308.71712 320.96469,283.23994 c 46.92902,-15.76891 101.42006,-60.3259 93.69123,-71.99826 z m -10.06416,6.11676 c 2.11291,3.14256 -14.90163,18.0136 -37.92132,33.22134 -23.01968,15.20774 -43.31482,24.97212 -45.42773,21.82956 -2.05732,-3.14256 14.90163,-18.0136 37.92131,-33.22134 23.01969,-15.20774 43.37042,-24.97212 45.42774,-21.82956 z m 0,0"
       stroke="#000000"
       stroke-width="0.348"
       stroke-opacity="1"
       stroke-miterlimit="4"
       id="path171" />
  </g>
  <g
     clip-path="url(#744f3b1c05)"
     id="g172"
     transform="translate(-611.07423,-20.878906)">
    <path
       fill="#000000"
       d="m 639.71875,45.023438 c 0.0859,0.125 -0.91406,-1.28125 0.34375,0.496093 1.25391,1.773438 2.33203,2.773438 4.83594,3.898438 0.16797,0.07422 0.36718,0.0039 0.4414,-0.164063 0.0781,-0.164062 0.004,-0.359375 -0.16406,-0.4375 -2.42969,-1.089844 -3.35937,-1.945312 -4.55469,-3.652344 -1.19922,-1.707031 -0.25781,-0.371093 -0.34375,-0.5 -0.0859,-0.128906 -0.17578,-0.261718 -0.26562,-0.398437 -0.082,-0.121094 -0.16797,-0.253906 -0.25781,-0.394531 -0.0195,0.01172 -0.0352,0.02344 -0.0547,0.03516 -0.17188,0.113281 -0.33594,0.222656 -0.4961,0.335938 0.0859,0.132812 0.17188,0.265624 0.25391,0.386718 0.0898,0.132813 0.17578,0.265625 0.26172,0.394532 z m 3.52734,-16.722657 c -0.043,0 -0.0898,0 -0.13281,0.0039 -0.0977,0.0039 -0.19531,0.0078 -0.28516,0.01953 -0.73828,0.08594 -1.28515,0.433593 -1.53906,0.949219 -0.2539,0.515624 -0.22265,1.140624 -0.0117,1.777343 0.21094,0.636719 0.60547,1.300781 1.14844,1.933594 0.12109,0.136719 0.33203,0.152344 0.46875,0.03516 0.14063,-0.117187 0.15625,-0.328125 0.0391,-0.464843 -0.49609,-0.574219 -0.84765,-1.175782 -1.02343,-1.707032 -0.17579,-0.535156 -0.17188,-0.984375 -0.0234,-1.285156 0.14844,-0.300781 0.43359,-0.515625 1.01562,-0.585938 0.58594,-0.06641 1.45313,0.05078 2.61328,0.453126 2.24219,0.785156 2.90625,2.628906 2.72657,4.164062 -0.0899,0.769531 -0.40625,1.445312 -0.82422,1.839844 -0.41797,0.394531 -0.89453,0.535156 -1.50781,0.289062 -1.39844,-0.5625 -2.66407,-1.316406 -3.9961,-1.710937 -1.33203,-0.390625 -2.7539,-0.382813 -4.30078,0.578125 -0.81641,0.507812 -1.21484,1.308594 -1.29687,2.179687 -0.082,0.875 0.12109,1.832031 0.45703,2.796875 0.53515,1.519532 1.41015,3.058594 2.14062,4.222656 0.1836,-0.128906 0.36719,-0.253906 0.55078,-0.371093 -0.71484,-1.144531 -1.5625,-2.636719 -2.0625,-4.070313 -0.3164,-0.910156 -0.49218,-1.792968 -0.42187,-2.515625 0.0664,-0.726562 0.34765,-1.285156 0.98437,-1.683593 1.40235,-0.871094 2.54688,-0.863282 3.76172,-0.503907 1.21485,0.355469 2.47266,1.101563 3.9336,1.6875 0.83203,0.335938 1.64843,0.109375 2.21484,-0.421875 0.56641,-0.535156 0.92187,-1.34375 1.02734,-2.242187 0.20703,-1.792969 -0.64843,-3.980469 -3.16406,-4.859375 -1,-0.347656 -1.82031,-0.507813 -2.49219,-0.507813 z m 0,0"
       fill-opacity="1"
       fill-rule="evenodd"
       id="path172" />
  </g>
</svg>
