<?xml version="1.0" encoding="UTF-8" standalone="no"?>
<svg
   width="283.16724"
   zoomAndPan="magnify"
   viewBox="0 0 212.37543 173.06934"
   height="230.75912"
   preserveAspectRatio="xMidYMid"
   version="1.0"
   id="svg370"
   xmlns="http://www.w3.org/2000/svg"
   xmlns:svg="http://www.w3.org/2000/svg">
  <defs
     id="defs148">
    <clipPath
       id="119190d62e">
      <path
         d="m 952,473 h 26 v 70.96875 h -26 z m 0,0"
         clip-rule="nonzero"
         id="path133" />
    </clipPath>
    <clipPath
       id="a3efdbe212">
      <path
         d="m 847,493 h 22 v 58.27344 h -22 z m 0,0"
         clip-rule="nonzero"
         id="path134" />
    </clipPath>
  </defs>
  <g
     clip-path="url(#119190d62e)"
     id="g155"
     transform="translate(-810.37786,-378.0784)">
    <path
       fill="#50342a"
       d="m 974.02344,473.34766 c 0.84375,19.74609 1.6875,39.49218 2.53515,59.24218 0.12891,3.03907 2.28516,8.09766 -0.082,10.00782 -1.53515,1.23828 -4.91015,0.41015 -6.8789,0.55468 l -7.10547,0.13672 c -2.66797,0.20313 -7.28125,0.0274 -8.99219,-1.70703 -1.71484,-1.73437 0.0781,-5.25781 0.26953,-7.92969 0.91016,-12.51172 2.28125,-31.74609 -0.95312,-43.87109"
       fill-opacity="1"
       fill-rule="nonzero"
       id="path155" />
  </g>
  <path
     fill="#004e18"
     d="m 209.62214,106.82004 c -1.8516,3.34765 -5.3711,5.91015 -9.0625,6.42578 -2.8711,0.39844 -5.3125,2.33594 -6.4766,4.98437 -2.9609,6.73438 -7.49996,12.92969 -14.44528,12.78516 -2.38671,-0.0508 -4.57031,-0.89453 -6.69531,-1.99219 -4.24219,-2.19922 -9.36328,-1.0625 -12.38672,2.62891 -1.38281,1.67969 -3.28125,3.00781 -5.34375,3.64453 -4.77343,1.48047 -9.96875,0.16406 -14.57422,-1.78516 -4,-1.69531 -6.07421,-4.11328 -8.20703,-6.89453 -2.67968,-3.5039 -6.8125,-5.5664 -11.22265,-5.66015 -5.80078,-0.125 -12.5,-0.94532 -16.19922,-3.33204 -5.226558,-3.36718 -8.917968,-9.50781 -8.210938,-15.68359 0.70313,-6.175785 6.574218,-11.664065 12.746088,-10.886725 -9.26562,-3.80078 -9.804678,-18.21484 -2.65625,-25.21875 1.11329,-1.08984 2.32422,-2.02734 3.61329,-2.82422 -0.24219,-0.96875 -0.44922,-1.95312 -0.61719,-2.9414 -0.4961,-2.85157 -2.40235,-5.32032 -5.09375,-6.39063 -3.46094,-1.38281 -6.269528,-4.71094 -7.265628,-8.40625 -1.39453,-5.16797 -1.18359,-11.53906 2.36328,-15.54687 10.570318,-11.94532 19.664068,-3.45313 20.507818,-8.92969 3.17968,-20.6484393 19.73437,-23.5546893 31.77343,-17.1640593 5.08204,-2.6875 10.65625,-4.28125 16.25391,-3.37891 8.13672,1.30859 15.32031,9.8671893 12.57813,17.6328093 10.00779,0.25 20.82029,3.67969 26.08589,12.19532 5.2696,8.51562 1.2852,22.3789 -8.6132,23.84375 6.1757,0.72656 10.5586,7.45703 9.7656,13.62109 -0.7735,6 -5.5781,10.95312 -11.2461,13.07812 3.7226,0.80079 9.5351,1.89844 14.0586,10.52344 2.4844,4.7461 1.164,10.976565 -1.4258,15.660165 z m 0,0"
     fill-opacity="1"
     fill-rule="nonzero"
     id="path156" />
  <g
     clip-path="url(#a3efdbe212)"
     id="g157"
     transform="translate(-810.37786,-378.0784)">
    <path
       fill="#50342a"
       d="m 850.55469,493.42578 c -0.69532,16.28125 -1.39063,32.5625 -2.08594,48.84375 -0.10938,2.50781 -1.88672,6.67578 0.0664,8.25391 1.26562,1.01953 4.04687,0.33593 5.66796,0.45703 l 5.85938,0.11328 c 2.19922,0.16406 6.00391,0.0234 7.41406,-1.41016 1.41406,-1.42968 -0.0625,-4.33593 -0.21875,-6.53515 -0.7539,-10.32032 -1.88281,-26.17578 0.78125,-36.17578"
       fill-opacity="1"
       fill-rule="nonzero"
       id="path157" />
  </g>
  <path
     fill="#146b2f"
     d="m 2.2705818,124.87082 c 1.52734,2.75781 4.42968,4.875 7.47265,5.29687 2.3671902,0.33203 4.3789102,1.92578 5.3398502,4.11328 2.4414,5.55079 6.18359,10.66016 11.91015,10.53907 1.96875,-0.043 3.76563,-0.73438 5.51953,-1.64063 3.4961,-1.8125 7.71875,-0.8789 10.21485,2.16797 1.13672,1.38281 2.70312,2.47656 4.40234,3.00391 3.9375,1.21875 8.21875,0.13281 12.01563,-1.47266 3.30078,-1.39844 5.00781,-3.39062 6.76562,-5.6875 2.21094,-2.88672 5.61719,-4.58594 9.25781,-4.66406 4.77735,-0.10156 10.30079,-0.77735 13.35547,-2.7461 4.30469,-2.77734 7.35157,-7.83984 6.76953,-12.93359 -0.58203,-5.08984 -5.42187,-9.61328 -10.51171,-8.97656 7.64062,-3.12891 8.08593,-15.015635 2.1914,-20.789065 -0.91797,-0.89844 -1.91406,-1.67188 -2.97656,-2.32813 0.19922,-0.80078 0.36719,-1.60937 0.50391,-2.42578 0.41015,-2.35156 1.98437,-4.38672 4.20312,-5.26953 2.85156,-1.14063 5.16797,-3.88672 5.98828,-6.92969 1.14844,-4.26172 0.97656,-9.51562 -1.94922,-12.82031 -8.71484,-9.84766 -16.21093,-2.84375 -16.90625,-7.36328 -2.62109,-17.02344 -16.26953,-19.41797 -26.19922,-14.15235 -4.1875,-2.21484 -8.78515,-3.52734 -13.39843,-2.78515 -6.70703,1.08203 -12.63282,8.13672 -10.3711,14.53906 -8.25,0.20703 -17.1640602,3.03516 -21.5078102,10.05469 -4.34374994,7.02343 -1.05859,18.45312 7.1015602,19.66015 -5.0898402,0.59766 -8.7070302,6.14844 -8.0507802,11.23047 0.63672,4.94531 4.59766,9.031255 9.2734402,10.781255 -3.0703102,0.66016 -7.8632802,1.56641 -11.5937502,8.67578 -2.04687994,3.91407 -0.96093994,9.05078 1.17578,12.91407 z m 0,0"
     fill-opacity="1"
     fill-rule="nonzero"
     id="path158" />
</svg>
